/* XPM */
static char *_5c001863bbc4b9adf1173096336467bNuO66EVZqOtR5bBJ[] = {
/* columns rows colors chars-per-pixel */
"28 28 8 1 ",
"  c #C5D2FF",
". c #1B1D34",
"X c #86E280",
"o c #C0F8AD",
"O c #21CA96",
"+ c #08A7A3",
"@ c #1B6A92",
"# c white",
/* pixels */
"                            ",
"                            ",
"                            ",
"                            ",
"                            ",
"                            ",
"                            ",
"                            ",
"                            ",
"                            ",
"          .......           ",
"        ..XXXXXXX..         ",
"       .XXXXXXXXXXX.        ",
"      .XXXXooXoXXXXX.       ",
"     .XoooXooXXXXXXXO.      ",
"    .XXoooXXXXXXXXXXO.      ",
"    .XXoooXXXXXXXXXXOO.     ",
"   .OXXXXXXXXXXXXXXOOO.     ",
"   .OXXXXXX+++XXXXXOO+@.    ",
"   .OXXXXX+OOO+XXXOO+@OO.   ",
"   .OXXXX+OXXOO+XOOO..+O.   ",
"   .OOXXX@XXXOO@OOOO...O.   ",
"   .OOOXX.XXXOO@OOOO...O.   ",
"    .OOOXXXXOOO.OOO+...O.   ",
"    .+OOOOOOO+.OOO+@...O.   ",
"     .@+OOOO+.OO++@....O.   ",
"      ....+.++++@@....+.    ",
"      .+@@@@@@.........     "
};
