/* XPM */
static char *a70899a1245a49299224382e482d1eeaVlmcjTuGNY07mMSy[] = {
/* columns rows colors chars-per-pixel */
"64 64 10 1 ",
"  c #3D253B",
". c #362030",
"X c #BF704D",
"o c #895A45",
"O c #90919E",
"+ c #ADC1CF",
"@ c #25131A",
"# c #523B40",
"$ c #927A5D",
"% c white",
/* pixels */
"                                                                ",
"                                                                ",
"               ........................  ..                     ",
"               ........................  ..                     ",
"                                             ..                 ",
"                                             ..                 ",
"                                             ..                 ",
"                                             ..                 ",
"                                             ..              .. ",
"                                             ..              .. ",
"                                             ..              .. ",
"                                             ..              .. ",
"                                             ..              .. ",
"                                             ..              .. ",
"                                   .............................",
"                                   .............................",
"...............      XXXX            XXXX                       ",
"...............      XXXX            XXXX                       ",
"             ..      oooo@@@@@@@@@@@@oooo                       ",
"             ..      oooo@@@@@@@@@@@@oooo                       ",
"             ..      oooo@@@@@@@@@@@@oooo                       ",
"             ..      oooo@@@@@@@@@@@@oooo                       ",
"             ......XXOO++XXXXXXXXXXXX++OOXX....                 ",
"             ......XXOO++XXXXXXXXXXXX++OOXX....                 ",
"               ....oooooooooooooooooooooooo....                 ",
"               ....oooooooooooooooooooooooo....                 ",
"               ..@@@@####@@@@@@@@@@@@####@@@@..                 ",
"               ..@@@@####@@@@@@@@@@@@####@@@@@..                ",
"               @@@XXOO++@@@@@@@@@@@@++OOXX@@@@@..               ",
"              @@@@XXOO++@@@@@@@@@@@@++OOXX@@@@@..               ",
"              @@@@oooooooooooooooooooooooo@@@@@@..              ",
"              @@@@oooooooooooooooooooooooo@@@@@@..              ",
"              @@@@@@####@@@@@@@@@@@@####@@@@@@@@..              ",
"              @@@@@@####@@@@@@@@@@@@####@@@@@@@@..              ",
"              @@@@@@oooo@@@@@@@@@@@@oooo@@@@@@@@..              ",
"              @@@@@@oooo@@@@@@@@@@@@oooo@@@@@@@@..              ",
"              ......oooo@@@@@@@@@@@@oooo.........               ",
"              ......oooo@@@@@@@@@@@@oooo.........               ",
"              @@@@@@oooo@@@@@@@@@@@@oooo@@@@@@@@..              ",
"              @@@@@@oooo@@@@@@@@@@@@oooo@@@@@@@@..              ",
"              @@@@@@oooo@@@@@@@@@@@@oooo@@@@@@@@..              ",
"              @@@@@@oooo@@@@@@@@@@@@oooo@@@@@@@@..              ",
"              @@@@@@oooo@@@@@@@@@@@@oooo@@@@@@@@..              ",
"              @@@@@@oooo@@@@@@@@@@@@oooo@@@@@@@@..              ",
"              @@@@@@oooo@@@@@@@@@@@@oooo@@@@@@@@..              ",
"              @@@@@@oooo@@@@@@@@@@@@oooo@@@@@@@@..              ",
"              @@@@@@oooo@@@@@@@@@@@@oooo@@@@@@@@..              ",
"              @@@@@@oooo@@@@@@@@@@@@oooo@@@@@@@@..              ",
"              @@@@XXOO++XXXXXXXXXXXX++OOXX@@@@@@..              ",
"              @@@@XXOO++XXXXXXXXXXXX++OOXX@@@@@@..              ",
"              @@@@oooooooooooooooooooooooo@@@@@@..              ",
"              @@@@oooooooooooooooooooooooo@@@@@@..              ",
"              @@@@@@####@@@@@@@@@@@@####@@@@@@@..               ",
"               @@@@@####@@@@@@@@@@@@####@@@@@@  ..              ",
"                @@@@oooo@@@@@@@@@@@@oooo@@@@@..                 ",
"                 @@@@oooo@@@@@@@@@@@@oooo@@@..                  ",
"                 ....oooo@@@@@@@@@@@@oooo.....                  ",
"                 ....oooo@@@@@@@@@@@@oooo.....                  ",
"                      ...@@@@@@@@@@@@  ..                       ",
"                      ...@@@@@@@@@@@@  ..                       ",
"                             ..                                 ",
"                             ..                                 ",
"                             ..                                 ",
"                             ..                                 ",
"                             ..                                 ",
"                             ..                                 ",
"                                                                ",
"                                                                ",
"                                                                ",
"                                                                ",
"                                                                ",
"                                                                ",
"                                                                ",
"                                                                "
};
