/* XPM */
static char *c11f067a24a34f0f99d57db3c5bb9bb9RUyPPECYbgLjYAeg[] = {
/* columns rows colors chars-per-pixel */
"32 32 17 1 ",
"  c #9EB3EF",
". c #1B1D34",
"X c #8E3C4D",
"o c #CC7E6B",
"O c #FCAF80",
"+ c #1B316B",
"@ c #EE7B6F",
"# c #C5D2FF",
"$ c #137AB1",
"% c #FCE4BD",
"& c #FFD36C",
"* c #34B0C6",
"= c #EE973A",
"- c #40517B",
"; c #A4824C",
": c #D4B56C",
"> c white",
/* pixels */
"                                ",
"                                ",
"                                ",
"          ........              ",
"        ..XooooooX..            ",
"       .oooooooooooX.  .        ",
"      .Xooooooooooooo..X.       ",
"     .XooooooooooooooXoo..      ",
"     .ooooooXoooooooooooXX.     ",
"    .XooooooXXXXoooooooXX..     ",
"    .ooooooooXXXXXXXXXXX.XX.    ",
"    .oooXoooooXXXXXXXXXXXX.     ",
"    .oooXXXXXXXXXXXXXXXX..      ",
"    .XooXXXXXXX...OOOO..        ",
"    .XXXXX..XXX ++OOOO+.        ",
"     .XXX.@@.XX#$$OO%%$.        ",
"     .XXX.OOOXXOOOOOOOO.        ",
"      .XX.%OOXO@@OO.OOO.        ",
"       .XX..OOOOOOOO..O.        ",
"       .XXX...OOOOOOOO.         ",
"      .XXX...&.$*$$...          ",
"     .&...**.&.****.&.          ",
"     .&&.**$.=.****.=..         ",
"     .&.***.=.**$$$*...         ",
"     .&.OO@..*******$.$.        ",
"     .=.OOO.*********.O.        ",
"     .=.@@@...........@.        ",
"      ......+++++++++...        ",
"         .+++++....+++.         ",
"         .++--.  .++--.         ",
"         .++...  .++...         ",
"         .;;;::. .;;;::.        "
};
