/* XPM */
static char *f1955cc37a744bb98ef2dd1d0bc279cd8plnkZptAuGogtx6[] = {
/* columns rows colors chars-per-pixel */
"66 66 6 1 ",
"  c #B08A63",
". c #C2986D",
"X c #5B6EE1",
"o c #9E7C59",
"O c #8C6D4D",
"+ c white",
/* pixels */
"  ..... X   X ..... X   X  ... X  ..... X   X ..... X   X  ... X  ",
" o..... o . o ..... o . o ....  o...... o . o ..... o . o ....  o ",
"O ..... o    o ..  oo . o  ..  . o .... o    o ..  oo . o  ..  ...",
"   .   o oooooo  oooo   o .. ... o     o oooooo  oooo   o .. .....",
".. ..oo .   o  oo  ooooooo ..... oooooo .   o  oo  ooooooo ... ...",
"... .. o... o.. o..o      o ..  ooo    o... o.. o..o      o .o ...",
"..... oo . o ...o.o ..... oo  ooooo .. o . o ...o.o ..... oo o ...",
" . . oooo oo .. ooo ..... o ooooo  o oooo oo .. ooo ..... ooo o   ",
"    o   oooo   o  o .....o .  oo .. o    ooo   o  o .....oo .. ooO",
"Ooooo ... oooooo. o  ... o... o ... o... ooooooo. o  ... o .. o   ",
"    o ....     o  ooo    o . o .... o....o     o  ooo   ooo . o . ",
" .. o .... o.. oooo  oooooo  o ..  o ... o ... oooo  oo oooo  o   ",
"    o .... o  oooo .. oo   oooo  ooo     ooo  oooo .. . o   ooo oO",
"Ooooo ... o ..oooo .. o .. ooo oo  oooooo   oooooo .. . o ... oo  ",
"  oooo    o ..    o  oo.... o .o ..    o .. oo    o oo  o ... o ..",
".. o .oooooo  oo. ooo o ....o .o...... o .. oo .. o oooooo . o ...",
".. o ..o   ooo  .. o . o ...o..o ......o .  o ..... ooo . oooo ...",
"... oooo . ooo ... o . o ...o..o ......o .  o ....  ooo   o.. o ..",
"... o . oooooo .. ooo o ....o .o...... o .. oo .. oo  oooooo. o ..",
".. o ... o  oo  . o  oo.... o .o ..    o .. oo   oo .. o    oooo  ",
"  oo ... o . ooo o .. o .. ooo oo  oooooo   ooooo o .. o ... ooooO",
"Oo ooo   o . ooooo .. oo   oooo  ooo     ooo  ooo. o  o .... o    ",
"   o  oooo .o    oo  oooooo  o ..  o ... o ... oo ooooo .... o .. ",
" . o . ooo  o ..  ooo    o . o .... o....o     o o . oo .... o    ",
"   o .. ooooo ... o  ... o... o ... o... ooooooo. ... o  ... ooooO",
"Ooo .. o  .  o    o .....o .  oo .. o    ooo   o .... oooo   o    ",
"   o ooo ... oooooo ..... o ooooo  o oooo oo .. o...  o . ooo . . ",
"... o  o ... o  ..o ..... oo  ooooo .. o . o ...o.. oo ... o .....",
"... o .o ... o ....o      o ..  ooo    o... o.. oooooo  . o .. ...",
"... o . ooo  o ..  ooooooo ..... oooooo .   o  oo.  oooo  o ... ..",
"... o  o   ooo ..oooo   o .. ... o     o oooooo  ... o  oooo ..   ",
"..  ooo ... o ...  oo . o  ..  . o .... o    o ..oooo .. ooo ... O",
" .ooooo ... o ..... o . o ....  o...... o . o ... . o ... ooo   o ",
" o   ooo ... o . .. o   o  ... o  ..... o   o ...... o ... ooooo. ",
"O ... ooo .. oooo. ooooo o  .  ooo .... ooooo ...... o ... ooo  ..",
"   .. oooo  o ... o  o  . o    o  o    o ... o   .. ooo   o  o ...",
".. ... o  oooo  .o . o ... o  o .. ooooo     oooo.. o  ooo . o ...",
"... .. o .  oooooo  o ..... oo ... ooooooooooo   .. o ... o. o ...",
"..... o ... oo ..oooo ....  o ..... oo     o  .. .  o ... o  o ...",
" . . ooo . o  ...    o .  ooo ..... o .... o ...ooooo ... ooo o   ",
"    o   oooo .... ... o oo   o ..... o .... o ..o   o  .  o .. ooO",
"Ooooo ...  o ... ..... o  ... o .... oo .. o o  o... ooooo .. o   ",
"    o .... oo . o .....o ..... o    o  o  o . ooo .. o  ooo . o . ",
" .. o .... ooooo o .   o......oooooo .. oo ... oo    o. oooo  o   ",
"    o .... o  o .o  oooo .... o    o ...o .... oooooo . o   ooo oO",
"Ooooo ... o .. o o o    o    oo .. o....o..... oo ooo . o ... oo  ",
"  oooo    o .. oo.o ... oooooooo  oo  . o .... o .  oo  o ... o ..",
".. o .oooooo  oo .o..... o  o   oo  oo ooo    o ... oooooo . o ...",
".. o ..o   ooo  ..o ... o . o...o ....ooo oooo .... ooo . oooo ...",
"... oooo . ooo ..... o  . o...... o..o... o . o ..  ooo   o.. o ..",
"... o . oooooo . .. oo .. o ......o. o.... o ooo ..o  oooooo. o ..",
".. o ... o  oo o    oo .. o    .. o. o ....oo  o    .. o    oooo  ",
"  oo ... o . o. oooooo   oooooo  oo ooo .. o .. ooooo. o ... ooooO",
"Oo ooo   o . .. oooo  ooo     ooo  oooo   oo .. oooo  o .... o    ",
"   o  oooo .o  oooo ... o ... o  .. o  oooooo  oooo ... .... o .. ",
" . o . ooo   ooo  o     o....o .... o . o    ooo  o     .... o    ",
"   o .. oo...  o .ooooooo ...o ... o ...o ...  o .ooooooo... ooooO",
"Ooo .. o ..... o  o   ooo    o .. oo  . o..... o  o   ooo    o    ",
"   o ooo ..... ooo .. oo oooo o  ooooo o ..... ooo .. oo oooo . . ",
"... o  o ..... o.o... o . o .. ooooo  oo ..... o.o... o . o  .....",
"... o  o      o..o ..o ...o    ooo  .. o      o..o ..o ...o  . ...",
"... o.. ooooooo  oo  o   . oooooo ..... ooooooo  oo  o   . ooo. ..",
"... . .. o   oooo  oooooo o     o ... .. o   oooo  oooooo o       ",
"..   ..  o . oo  .. o    o .... o .  ..  o . oo  .. o    o ....  O",
" .  .... o . o ..... o . o ......o  .... o . o ..... o . o ...... ",
"  O ...  O   O ..... O   O .....  O ...  O   O ..... O   O .....  "
};
