/* XPM */
static char *_d037f49dc4c4160833c89eef96b91e40aOOEXdnT31RgNAa[] = {
/* columns rows colors chars-per-pixel */
"90 90 7 1 ",
"  c #C2986D",
". c #9E7C59",
"X c #B08A63",
"o c #3E734E",
"O c #4D9262",
"+ c #7AB055",
"@ c white",
/* pixels */
"     .    .X  X..XXXX.XXXX.X...X     .    .X  X..XXXX.XXXX.X...X     .    .X  X..XXXX.XXXX",
"    X.   X.XXXX.X    X....XX...X    X.   X.XXXX.X    X....XX...X    X.   X.XXXX.X    X....",
"   X..X  X......      .XXX X...X   X..X  X......      .XXX X...X   X..X  X......      ...X",
"  X.XX.XX.XXXX.X     X.     X...X X.XX.XX.XXXX.X     X.     X...X X.XX.XX.XXXX.X     ....X",
" X.X  X..X    X.X   XX.X     .XX.X.X  X..X    X.X   XX.X     .XX.X.X  X..X    X.X   X.X X.",
"...X   X.X     X.XXX..X.X   X.  X.X    X.X     X.XXX..X.X   X.  X.X    X.X     X.XXX.X   X",
"  X.X   X.X     X...XX X.XXXX.   X.X    X.X     X...XX X.XXXX.   X.X    X.X     X...X    X",
"   X.X X..X     X.XX    X....X  XX.XXXXX..X     X.XX    X....X  XX.XXXXX..X     X...X    X",
"   X..X....X   X..X     X.XX.XXX...........X   X..X     X.XX.XXX...........X   X....X    X",
" XX.XX.....X  X.XX.X   X.X X.....XXXXX.....X  X.XX.X   X.X X.....XXXXX.....X  X...XX.X  X.",
"...X  XX....XX.XXXX.X XX.XX.XXXX.X   X.XXXX.XX.XXXX.X XX.XX.XXXX.X   X.XXXX.XX...X  X.X...",
"XX.X    XX.....XX XX.X..o..X    X.....X    X...XX XX.X..o..X    X.....X    X....X    X..XX",
" X.X      X....X   XX.ooo.XX    X.XXX.X     X..X   XX.ooo.XX    X.XXX.X     X..X      X.X ",
" X.X      X.....XXXXX.oOOo..XXXX.o.X.o.XXXXX.o..XXXXX.oOOo..XXXX.o.X.o.XXXXX.X.X      X.X ",
"XX..X    X.....oo..oooOOOOoo...ooOo.oOoo...ooo.oo..oooOOOOoo...ooOo.oOoo....X X.XX    X.XX",
"...X.X  X.XXX.oOOooOOOOOOOOOoooOOOOoOOOOoooOOOoOOooOOOOOOOOOoooOOOOoOOOOooo.X  X..XX  X...",
".X  X.XX.XXX XoOOOOOOOOOOOOOOOOOOOOOOOoOOOOOOOOOOOOOOOOOOOOOOOOOOOOOOOOOOOo.X  X....XX.XX ",
"X    X...XX  X.oOOOOOOOOOOOOOOOOOOOOOoOoOOOOOOOOOOOOOOOOOOOOOOOOOOOOOOOOOOo.X  X...X..X   ",
"X    X.XX.XX X.oOOOOOOOOOOOOOOOOOOOOOOoOOOOOOOOOOOOOOOOOOOOOOOOOOOOOOOOOOOOoX  X..X X.X   ",
"X    X.X X.XXXoOOOOOOOOOOOOOOOOOOOOOOOOOOOOOOOOOOOOOOOOOOOOOOOOOOOOOOOOOOOOo.XX...X  X.X  ",
"X   X.X   X.XXoOOOOOOOOOOOOOOOOOOOOOOOOOOOOOOOOOOOOOOOOOOOOOOOOOOOOOOOOOOOOOo..XX.X   X...",
".X XX.X    X..oOOOOOOOOOOOOOOOOOOOOOOOOOOOO+OOOOOOOOOOOOOOOOOOOOOOOOOOOOOOOo.X. X.X   X.X ",
"X....X    X.ooOOOOOOOOOOOOOOOOOOOOOOOOOOOO++OOOOOOOOOOOOOOOOOOOOOOOOOOOOOOo.XX. X.XX X.X  ",
"X.X X.X  XX.oOOOOOOOOOOOOOOOOOOOOOOOOOO+OO++OOOOOOOOOO+OOOOOOOOOOOOOOOOOOOOo.X. X...X.X   ",
"X.X  X.XX..ooOOOOOOOOOOOOOOOOOOOOOOOOOO++o+OOOOOOOOOOO+OOOOOOOOOOOOOOOOOOOOOo..XX.XX.X    ",
"X.X   X..XX..oOOOOOOOOOOOOOOOOOOOOOOOOOo++oOOOOOOOOO+O+OOOOOOOOOOOOOOOOOOOOo.XX...X X.X   ",
".X    X.X X.X.oOOOOOOOOOOOOOOOOOOOOOOOOOooOOOOOOOOOO+O+OOOOOOOOOOOOOOOOOOOOoX  X.X   X.XXX",
"XXX   X.XX.XX.oOOOOOOOOOOOOOOOOOOOOOOOOOOOOOOOOOOOOO+OOOOOOOOOOOOOOOOOOOOOo.X  X.X   X....",
"...X XX...X  X.oOOOOOOOOOOOOOOOOOOOOOOOOOOOOOOOOOOOOOOOOOOOOOOOOOOOOOOOOOOo.X  X.XX.......",
".......XX.X  X.oOOOOOOOOOOOOOOOOOOOOOOOOOOOOOOOOOOOOOOOOOOOOOOOOOOOOOOOOOOo.X  X...XX X...",
"....X   X.X  X.oOOOOOOOOOOOOOOOOOOOOOOOOOOOOOOOOOOOoOOOOOOOOOOOOOOOOOOOOOOOo.XX.XX.X   XXX",
"XXX.X   X.X  XoOOOOOOOOOOOOOOOOOOOOOOOOOOOOOOOOOOOoOoOOOOOOOOOOOOOOOOOOOOOOo.X.X X.X    X.",
"   X.X X...XX.oOOOOOOOOOOOOOOOOOOOOOOOOOOOOOOOOOOOOoOOOOOOOOOOOOOOOOOOOOOOOOo..XX..X   X.X",
"    X.XX.XX..oOOOOOOOOOOOOOOOOOOOOOOOOOOOOOOOOOOOOOOOOOOOOOOOOOOOOOOOOOOOOOOOoo..XX.X  X.X",
"   X.X...X .X.oOOOOOOOOOOOOOOOOOOOOOOOOOOOOOOOOOOOOOOOOOOOOOOOOOOOOOOOOOOOOOOo.XX  X.X X.X",
"  X.X XX.X .XX.oOOOOOOOOOOOOOOOOOOOOOOOOOOOOOO+OOOOOOOOOOOOOOOOOOOOOOOOOOOOOoo.X    X....X",
" X.X   X.X .X.oOOOOOOOOOOOOOOOOOOOOOOOOOOOOOOO++OOOOOOOOOOOOOOOOOOOOOOOOOOOo..X    X.XX X.",
"...X   X.XX..oOOOOO+OOOOOOOOOOOOOOO+OOOOOOOOOO++OO+OOOOOOOOOOOOOOOOOOOOOO+OoXX.X   X.X   X",
"  X.X  X...XX.oOOOO+OOOOOOOOOOOOOOO+OOOOOOOOOOO+o++OOOOOOOOOOOOOOOOOOOO+O+OoXXX.X X.X    X",
"   X.X X..X  XoOOOO+O+OOOOOOOOOOOOO+O+OOOOOOOOOo++oOOOOOOOOOOOOOOOOOOOO+O+o.X XX.XX.X    X",
"   X..X...X  X.oOOO+O+OOOOOOOOOOOOO+O+OOOOOOOOOOooOOOOOOOOOOOOOOOOOOOOO+OOo.X  XX...X    X",
" XX.XX....X  X.oOOOOO+OOOOOOOOOOOOOOO+OOOOOOOOOOOOOOOOOOOOOOOOOOOOOOOOOOOOOoX XXX.XX.X  X.",
"...X  XX..X  X.oOOOOOOOOOOOOOOOOOOOOOOOOOOOOOOOOOOOOOOOOOOOOOOOOOOOOOOOOOOOo.XXX.X  X.X...",
"XX.X    XX.X XoOOOOOOOOOOOOOOOOOOOOOOOOOOOOOOOOOOOOOOOOOOOOOOOOOOOOOOOOOOOo.....X    X..XX",
" X.X      X.X.oOOOOOOOOOOOOOO+OOOOOOOOOOOOOOOOOOOOOOOOOOOOOOO+OOOOOOOOOOOOOoo..X      X.X ",
" X.X      X..ooOOOOOOOOOOOOO+O+OOOOOOOOOOOOOOOOOOOOOOOOOOOOO+O+OOOOOOOOOOOOo.X.X      X.X ",
"XX..X    X.....oOOOOOOOOOOOOO+OOOOOOOOOOOOOOOOOOOOOOOOOOOOOOO+OOOOOOOOOOOOOoX X.XX    X.XX",
"...X.X  X.XXX.oOOOOOOOOOOOOOOOOOOOOOOOOOOOOOOOOOOOOOOOOOOOOOOOOOOOOOOOOOOOo.X  X..XX  X...",
".X  X.XX.XXX XoOOOOOOOOOOOOOOOOOOOOOOOOOOOOOOOOOOOOOOOOOOOOOOOOOOOOOOOOOOOo.X  X....XX.XX ",
"X    X...XX  X.oOOOOOOOOOOOOOOOOOOOOOOOOOOOOOOOOOOOOOOOOOOOOOOOOOOOOOOOOOOo.X  X...X..X   ",
"X    X.XX.XX X.oOOOOOOOOOOOOOOOOOOOOOOOoOOOOOOOOOOOOOOOOOOOOOOOOOOOOOOOOOOOoX  X..X X.X   ",
"X    X.X X.XXXoOOO++OOOOOOOOOOOOOOOOOOoOoOOOOOOOOOOOOOOOOOOOOOOOOOOOOOOOOOOo.XX...X  X.X  ",
"X   X.X   X.XXoOOOO++O++OOOOOOOOOOOOOOOoOOOOOOOOOOOOOOOOOOOOOOOOOOOOOOOOOOOOo..XX.X   X...",
".X XX.X    X..oOOOOO+++OOOOOOOOOOOOOOOOOOOOOOOOOOOOOOO+OOOOOOOOOOO++OOOOOOOo.X. X.X   X.X ",
"X....X    X.ooOOOOOOo+oOOOOOOOOOOOOOOOOOOOOOOOOOOOOO+O+OOOOOOOOOOOO++O++OOo.XX. X.XX X.X  ",
"X.X X.X  XX.oOOOOOOOooOOOOOOOOOOOOOOOOOOOOOOOOOOOOOO+O+OOOOOOOOOOOOO+++OOOOo.X. X...X.X   ",
"X.X  X.XX..ooOOOOOOOOOOOOOOOOOOOOOOOOOOOOOOOOOOOOOOO+OOOOOOOOOOOOOOOo+oOOOOOo..XX.XX.X    ",
"X.X   X..XX..oOOOOOOOOOOOOOOOOOOOOOOOOOOOOOOOOOOOOOOOOOOOOOOOOOOOOOOooOOOOOo.XX...X X.X   ",
".X    X.X X.X.oOOOOOOOOOOOOOOOOOOOOOOOOOOO+OOOOOOOOOOOOOOOOOOOOOOOOOOOOOOOOoX  X.X   X.XXX",
"XXX   X.XX.XX.oOOOOOOOOOOOOOOOOOOOOOOOOOO+O+OOOOOOOOOOOOOOOOOOOOOOOOOOOOOOo.X  X.X   X....",
"...X XX...X  X.oOOOOOOOOOOOOOOOOOOOOOOOOOO+OOOOOOOOOOOOOOOOOOOOOOOOOOOOOOOo.X  X.XX.......",
".......XX.X  X.oOOOOOOOOOOOOOOOOOOOOOOOOOOOOOOOOOOOOOOOOOOOOOOOOOOOOOOOOOOo.X  X...XX X...",
"....X   X.X  X.oOOOOOOOOOOOOOOOOOOOOOOOOOOOOOOOOOOOoOOOOOOOOOOOOOOOOOOOOOOOo.XX.XX.X   XXX",
"XXX.X   X.X  XoOOOOOOOOOOOOOOOOOOOOOOOOOOOOOOOOOOOoOoOOOOOOOOOOOOOOOOOOOOOOo.X.X X.X    X.",
"   X.X X...XX.oOOOOOOOOOOOOOOOOOOOOOOOOOOOOOOOOOOOOoOOOOOOOOOOOOOOOOOOOOOOOOo..XX..X   X.X",
"    X.XX.XX..oOOOOOOOOOOOOOOOOOOOOOOOOOOOOOOOOOOOOOOOOOOOOOOOOOOOOOOOOOOOOOOOoo..XX.X  X.X",
"   X.X...X .X.oOOOOOOOOOOOOOOOOOOOOOOOOOOOOOOOOOOOOOOOOOOOOOOOOOOOOOOOOOOOOOOo.XX  X.X X.X",
"  X.X XX.X .XX.oOOOOOOOOOOOOOOOOOOOOOOOOOOOOOO+OOOOOOOOOOOOOOOOOOOOOOOOOOOOOoo.X    X....X",
" X.X   X.X .X.oOOOOOOOOOOOOOOOOOOOOOOOOOOOOOOO++OOOOOOOOOOOOOOOOOOOOOOOOOOOo..X    X.XX X.",
"...X   X.XX..oOOOOOOOOOOOOOOOOOOOOO+OOOOOOOOOO++OO+OOOOOOOOOOOOOOOOOOOOOOOOoXX.X   X.X   X",
"  X.X  X...XX.oOOOOOOOOOOOOOOOOOOOO+OOOOOOOOOOO+o++OOOOOOOOOOOOOOOOOOOOOOOOoXXX.X X.X    X",
"   X.X X..X  XoOOOOOOOOOOOOOOOOOOOO+O+OOOOOOOOOo++oOOOOOOOOOOOOOOOOOOOOOOOo.X XX.XX.X    X",
"   X..X...X  X.oOOOOOOOOOOOOOOOOOOO+O+OOOOOOOOOOooOOOOOOOOOOOOOOOOOOOOOOOOo.X  XX...X    X",
" XX.XX....X  X.oOOOOOOOOOOOOOOOOOOOOO+OOOOOOOOOOOOOOOOOOOOOOOOOOOOOOOOOOOOOoX XXX.XX.X  X.",
"...X  XX..X  X.oooOOOOoOOOOoooOOOOOOOOOooOOoOOOoooOOOOoOOOOoooOOOOOOOOOooOOo.XXX.X  X.X...",
"XX.X    XX.X X....ooOo.oOoo...ooOOOOooo..oo.ooo...ooOo.oOoo...ooOOOOooo..oo.....X    X..XX",
" X.X      X.X.XXXXX.o.X.o.XXXX..oOOo.XXXXX..o.XXXXX.o.X.o.XXXX..oOOo.XXXXX.....X      X.X ",
" X.X      X...     X.XXX.X    XX.ooo.XX   X..X     X.XXX.X    XX.ooo.XX   X....X      X.X ",
"XX..X    X....X    X.....X    X..o..X.XX XX...X    X.....X    X..o..X.XX XX.....XX    X.XX",
"...X.X  X...XX.XXXX.X   X.XXXX.XX.XX X.XXXX.XX.XXXX.X   X.XXXX.XX.XX X.XXXX.XX....XX  X...",
".X  X.XX...X  X.....XXXXX.....X X.X   X.XX.X  X.....XXXXX.....X X.X   X.XX.X  X.....XX.XX ",
"X    X....X   X...........XXX.XX.X     X..X   X...........XXX.XX.X     X..X   X....X..X   ",
"X    X...X     X..XXXXX.XX  X....X    XX.X     X..XXXXX.XX  X....X    XX.X     X..X X.X   ",
"X    X...X     X.X    X.X   .XXXX.X XX...X     X.X    X.X   .XXXX.X XX...X     X.X   X.X  ",
"X   X.XXX.X     X.X    X.X  .X   X.X..XXX.X     X.X    X.X  .X   X.X..XXX.X     X.X   X...",
".X X.X   X.X    X..X  X.X.XX.     X.XX   X.X    X..X  X.X.XX.     X.XX   X.X    X..X  X.X ",
"X...X     X.XXXX.XX.XX.X X...X     .X     X.XXXX.XX.XX.X X...X     .X     X.XXXX.XX.XX.X  ",
"X...      ......X  X..X   X...X XXX.      ......X  X..X   X...X XXX.      ......X  X..X   ",
"X...X    X.XXXX.X   .X    X...XX....X    X.XXXX.X   .X    X...XX....X    X.XXXX.X   .X    ",
".XXX.XXXX..X  X.    .     X...X.XXXX.XXXX..X  X.    .     X...X.XXXX.XXXX..X  X.    .     "
};
